<?xml version="1.0" encoding="UTF-8" standalone="no"?>
<!-- Created with Inkscape (http://www.inkscape.org/) -->

<svg
   xmlns:dc="http://purl.org/dc/elements/1.1/"
   xmlns:cc="http://creativecommons.org/ns#"
   xmlns:rdf="http://www.w3.org/1999/02/22-rdf-syntax-ns#"
   xmlns:svg="http://www.w3.org/2000/svg"
   xmlns="http://www.w3.org/2000/svg"
   xmlns:xlink="http://www.w3.org/1999/xlink"
   xmlns:sodipodi="http://sodipodi.sourceforge.net/DTD/sodipodi-0.dtd"
   xmlns:inkscape="http://www.inkscape.org/namespaces/inkscape"
   width="744.09448819"
   height="1052.3622047"
   id="svg2"
   version="1.1"
   inkscape:version="0.47 r22583"
   sodipodi:docname="arrows.svg">
  <defs
     id="defs4">
    <linearGradient
       inkscape:collect="always"
       id="linearGradient5626">
      <stop
         style="stop-color:#ff000f;stop-opacity:1;"
         offset="0"
         id="stop5628" />
      <stop
         style="stop-color:#ff000f;stop-opacity:0;"
         offset="1"
         id="stop5630" />
    </linearGradient>
    <linearGradient
       id="linearGradient5474">
      <stop
         id="stop5476"
         offset="0"
         style="stop-color:#068f06;stop-opacity:1" />
      <stop
         id="stop5478"
         offset="1"
         style="stop-color:#affcab;stop-opacity:1;" />
    </linearGradient>
    <linearGradient
       id="linearGradient3681">
      <stop
         style="stop-color:#009f00;stop-opacity:1;"
         offset="0"
         id="stop3683" />
      <stop
         style="stop-color:#affcab;stop-opacity:1;"
         offset="1"
         id="stop3685" />
    </linearGradient>
    <inkscape:perspective
       sodipodi:type="inkscape:persp3d"
       inkscape:vp_x="0 : 526.18109 : 1"
       inkscape:vp_y="0 : 1000 : 0"
       inkscape:vp_z="744.09448 : 526.18109 : 1"
       inkscape:persp3d-origin="372.04724 : 350.78739 : 1"
       id="perspective10" />
    <inkscape:perspective
       id="perspective3610"
       inkscape:persp3d-origin="0.5 : 0.33333333 : 1"
       inkscape:vp_z="1 : 0.5 : 1"
       inkscape:vp_y="0 : 1000 : 0"
       inkscape:vp_x="0 : 0.5 : 1"
       sodipodi:type="inkscape:persp3d" />
    <inkscape:perspective
       id="perspective3634"
       inkscape:persp3d-origin="0.5 : 0.33333333 : 1"
       inkscape:vp_z="1 : 0.5 : 1"
       inkscape:vp_y="0 : 1000 : 0"
       inkscape:vp_x="0 : 0.5 : 1"
       sodipodi:type="inkscape:persp3d" />
    <inkscape:perspective
       id="perspective3657"
       inkscape:persp3d-origin="0.5 : 0.33333333 : 1"
       inkscape:vp_z="1 : 0.5 : 1"
       inkscape:vp_y="0 : 1000 : 0"
       inkscape:vp_x="0 : 0.5 : 1"
       sodipodi:type="inkscape:persp3d" />
    <inkscape:perspective
       id="perspective5135"
       inkscape:persp3d-origin="0.5 : 0.33333333 : 1"
       inkscape:vp_z="1 : 0.5 : 1"
       inkscape:vp_y="0 : 1000 : 0"
       inkscape:vp_x="0 : 0.5 : 1"
       sodipodi:type="inkscape:persp3d" />
    <linearGradient
       inkscape:collect="always"
       xlink:href="#linearGradient3681-6"
       id="linearGradient3687-9"
       x1="213.15254"
       y1="386.29001"
       x2="389.76636"
       y2="560.03625"
       gradientUnits="userSpaceOnUse" />
    <linearGradient
       id="linearGradient3681-6">
      <stop
         style="stop-color:#009f00;stop-opacity:1;"
         offset="0"
         id="stop3683-3" />
      <stop
         style="stop-color:#affcab;stop-opacity:1;"
         offset="1"
         id="stop3685-9" />
    </linearGradient>
    <linearGradient
       gradientTransform="matrix(-1,0,0,-1,604.50519,1169.9516)"
       y2="350.43359"
       x2="213.15253"
       y1="608.01447"
       x1="389.76633"
       gradientUnits="userSpaceOnUse"
       id="linearGradient5144"
       xlink:href="#linearGradient3681-6"
       inkscape:collect="always" />
    <linearGradient
       inkscape:collect="always"
       xlink:href="#linearGradient3681"
       id="linearGradient5170"
       gradientUnits="userSpaceOnUse"
       x1="213.15254"
       y1="386.29001"
       x2="389.76636"
       y2="560.03625" />
    <inkscape:perspective
       id="perspective5180"
       inkscape:persp3d-origin="0.5 : 0.33333333 : 1"
       inkscape:vp_z="1 : 0.5 : 1"
       inkscape:vp_y="0 : 1000 : 0"
       inkscape:vp_x="0 : 0.5 : 1"
       sodipodi:type="inkscape:persp3d" />
    <linearGradient
       gradientTransform="matrix(-1,0,0,-1,604.50519,1169.9516)"
       y2="350.43359"
       x2="213.15253"
       y1="608.01447"
       x1="389.76633"
       gradientUnits="userSpaceOnUse"
       id="linearGradient5144-0"
       xlink:href="#linearGradient3681-6-8"
       inkscape:collect="always" />
    <linearGradient
       id="linearGradient3681-6-8">
      <stop
         style="stop-color:#009f00;stop-opacity:1;"
         offset="0"
         id="stop3683-3-2" />
      <stop
         style="stop-color:#affcab;stop-opacity:1;"
         offset="1"
         id="stop3685-9-8" />
    </linearGradient>
    <inkscape:perspective
       id="perspective5221"
       inkscape:persp3d-origin="0.5 : 0.33333333 : 1"
       inkscape:vp_z="1 : 0.5 : 1"
       inkscape:vp_y="0 : 1000 : 0"
       inkscape:vp_x="0 : 0.5 : 1"
       sodipodi:type="inkscape:persp3d" />
    <linearGradient
       gradientTransform="matrix(-1,0,0,-1,604.50519,1169.9516)"
       y2="350.43359"
       x2="213.15253"
       y1="608.01447"
       x1="389.76633"
       gradientUnits="userSpaceOnUse"
       id="linearGradient5144-7"
       xlink:href="#linearGradient3681-6-2"
       inkscape:collect="always" />
    <linearGradient
       id="linearGradient3681-6-2">
      <stop
         style="stop-color:#009f00;stop-opacity:1;"
         offset="0"
         id="stop3683-3-1" />
      <stop
         style="stop-color:#affcab;stop-opacity:1;"
         offset="1"
         id="stop3685-9-4" />
    </linearGradient>
    <inkscape:perspective
       id="perspective5265"
       inkscape:persp3d-origin="0.5 : 0.33333333 : 1"
       inkscape:vp_z="1 : 0.5 : 1"
       inkscape:vp_y="0 : 1000 : 0"
       inkscape:vp_x="0 : 0.5 : 1"
       sodipodi:type="inkscape:persp3d" />
    <linearGradient
       gradientTransform="matrix(-1,0,0,-1,604.50519,1169.9516)"
       y2="350.43359"
       x2="213.15253"
       y1="608.01447"
       x1="389.76633"
       gradientUnits="userSpaceOnUse"
       id="linearGradient5144-3"
       xlink:href="#linearGradient3681-6-6"
       inkscape:collect="always" />
    <linearGradient
       id="linearGradient3681-6-6">
      <stop
         style="stop-color:#009f00;stop-opacity:1;"
         offset="0"
         id="stop3683-3-0" />
      <stop
         style="stop-color:#affcab;stop-opacity:1;"
         offset="1"
         id="stop3685-9-5" />
    </linearGradient>
    <linearGradient
       y2="350.43362"
       x2="389.76633"
       y1="608.01453"
       x1="213.15253"
       gradientTransform="matrix(0,1,-1,0,1037.7955,208.04561)"
       gradientUnits="userSpaceOnUse"
       id="linearGradient5274"
       xlink:href="#linearGradient3681-6-6"
       inkscape:collect="always" />
    <inkscape:perspective
       id="perspective5303"
       inkscape:persp3d-origin="0.5 : 0.33333333 : 1"
       inkscape:vp_z="1 : 0.5 : 1"
       inkscape:vp_y="0 : 1000 : 0"
       inkscape:vp_x="0 : 0.5 : 1"
       sodipodi:type="inkscape:persp3d" />
    <linearGradient
       y2="350.43359"
       x2="213.15253"
       y1="608.01447"
       x1="389.76633"
       gradientTransform="matrix(0,1,-1,0,1037.7955,208.04561)"
       gradientUnits="userSpaceOnUse"
       id="linearGradient5274-0"
       xlink:href="#linearGradient3681-6-6-4"
       inkscape:collect="always" />
    <linearGradient
       id="linearGradient3681-6-6-4">
      <stop
         style="stop-color:#009f00;stop-opacity:1;"
         offset="0"
         id="stop3683-3-0-8" />
      <stop
         style="stop-color:#affcab;stop-opacity:1;"
         offset="1"
         id="stop3685-9-5-4" />
    </linearGradient>
    <linearGradient
       y2="608.01453"
       x2="213.15251"
       y1="350.43362"
       x1="389.76633"
       gradientTransform="matrix(0,-1,1,0,-447.79549,808.10732)"
       gradientUnits="userSpaceOnUse"
       id="linearGradient5312"
       xlink:href="#linearGradient3681-6-6-4"
       inkscape:collect="always" />
    <inkscape:perspective
       id="perspective5341"
       inkscape:persp3d-origin="0.5 : 0.33333333 : 1"
       inkscape:vp_z="1 : 0.5 : 1"
       inkscape:vp_y="0 : 1000 : 0"
       inkscape:vp_x="0 : 0.5 : 1"
       sodipodi:type="inkscape:persp3d" />
    <linearGradient
       y2="350.43362"
       x2="389.76633"
       y1="608.01453"
       x1="213.15253"
       gradientTransform="matrix(0,1,-1,0,1037.7955,208.04561)"
       gradientUnits="userSpaceOnUse"
       id="linearGradient5274-8"
       xlink:href="#linearGradient3681-6-6-8"
       inkscape:collect="always" />
    <linearGradient
       id="linearGradient3681-6-6-8">
      <stop
         style="stop-color:#009f00;stop-opacity:1;"
         offset="0"
         id="stop3683-3-0-6" />
      <stop
         style="stop-color:#affcab;stop-opacity:1;"
         offset="1"
         id="stop3685-9-5-6" />
    </linearGradient>
    <inkscape:perspective
       id="perspective5381"
       inkscape:persp3d-origin="0.5 : 0.33333333 : 1"
       inkscape:vp_z="1 : 0.5 : 1"
       inkscape:vp_y="0 : 1000 : 0"
       inkscape:vp_x="0 : 0.5 : 1"
       sodipodi:type="inkscape:persp3d" />
    <inkscape:perspective
       id="perspective5407"
       inkscape:persp3d-origin="0.5 : 0.33333333 : 1"
       inkscape:vp_z="1 : 0.5 : 1"
       inkscape:vp_y="0 : 1000 : 0"
       inkscape:vp_x="0 : 0.5 : 1"
       sodipodi:type="inkscape:persp3d" />
    <linearGradient
       y2="608.01453"
       x2="213.15251"
       y1="350.43362"
       x1="389.76633"
       gradientTransform="matrix(0,-1,1,0,-447.79549,808.10732)"
       gradientUnits="userSpaceOnUse"
       id="linearGradient5312-6"
       xlink:href="#linearGradient3681-6-6-4-3"
       inkscape:collect="always" />
    <linearGradient
       id="linearGradient3681-6-6-4-3">
      <stop
         style="stop-color:#009f00;stop-opacity:1;"
         offset="0"
         id="stop3683-3-0-8-4" />
      <stop
         style="stop-color:#affcab;stop-opacity:1;"
         offset="1"
         id="stop3685-9-5-4-8" />
    </linearGradient>
    <linearGradient
       inkscape:collect="always"
       xlink:href="#linearGradient5474"
       id="linearGradient5472"
       x1="442.6492"
       y1="157.63817"
       x2="690.36243"
       y2="404.58936"
       gradientUnits="userSpaceOnUse" />
    <inkscape:perspective
       id="perspective5511"
       inkscape:persp3d-origin="0.5 : 0.33333333 : 1"
       inkscape:vp_z="1 : 0.5 : 1"
       inkscape:vp_y="0 : 1000 : 0"
       inkscape:vp_x="0 : 0.5 : 1"
       sodipodi:type="inkscape:persp3d" />
    <linearGradient
       inkscape:collect="always"
       xlink:href="#linearGradient5474-9"
       id="linearGradient5472-7"
       x1="442.6492"
       y1="157.63817"
       x2="690.36243"
       y2="404.58936"
       gradientUnits="userSpaceOnUse" />
    <linearGradient
       id="linearGradient5474-9">
      <stop
         id="stop5476-2"
         offset="0"
         style="stop-color:#068f06;stop-opacity:1" />
      <stop
         id="stop5478-3"
         offset="1"
         style="stop-color:#affcab;stop-opacity:1;" />
    </linearGradient>
    <inkscape:perspective
       id="perspective5562"
       inkscape:persp3d-origin="0.5 : 0.33333333 : 1"
       inkscape:vp_z="1 : 0.5 : 1"
       inkscape:vp_y="0 : 1000 : 0"
       inkscape:vp_x="0 : 0.5 : 1"
       sodipodi:type="inkscape:persp3d" />
    <inkscape:perspective
       id="perspective5590"
       inkscape:persp3d-origin="0.5 : 0.33333333 : 1"
       inkscape:vp_z="1 : 0.5 : 1"
       inkscape:vp_y="0 : 1000 : 0"
       inkscape:vp_x="0 : 0.5 : 1"
       sodipodi:type="inkscape:persp3d" />
    <linearGradient
       inkscape:collect="always"
       xlink:href="#linearGradient5474-6"
       id="linearGradient5472-0"
       x1="442.6492"
       y1="157.63817"
       x2="690.36243"
       y2="404.58936"
       gradientUnits="userSpaceOnUse" />
    <linearGradient
       id="linearGradient5474-6">
      <stop
         id="stop5476-8"
         offset="0"
         style="stop-color:#068f06;stop-opacity:1" />
      <stop
         id="stop5478-9"
         offset="1"
         style="stop-color:#affcab;stop-opacity:1;" />
    </linearGradient>
    <linearGradient
       gradientTransform="matrix(-1,0,0,1,588.75889,5.307683)"
       y2="404.58936"
       x2="442.6492"
       y1="157.63818"
       x1="690.36243"
       gradientUnits="userSpaceOnUse"
       id="linearGradient5599"
       xlink:href="#linearGradient5474-6"
       inkscape:collect="always" />
    <linearGradient
       inkscape:collect="always"
       xlink:href="#linearGradient5626"
       id="linearGradient5632"
       x1="202.78572"
       y1="396.64789"
       x2="480.07144"
       y2="629.57642"
       gradientUnits="userSpaceOnUse" />
    <inkscape:perspective
       id="perspective5642"
       inkscape:persp3d-origin="0.5 : 0.33333333 : 1"
       inkscape:vp_z="1 : 0.5 : 1"
       inkscape:vp_y="0 : 1000 : 0"
       inkscape:vp_x="0 : 0.5 : 1"
       sodipodi:type="inkscape:persp3d" />
    <linearGradient
       gradientTransform="matrix(-1,0,0,1,588.75889,5.307683)"
       y2="404.58936"
       x2="442.6492"
       y1="157.63818"
       x1="690.36243"
       gradientUnits="userSpaceOnUse"
       id="linearGradient5599-1"
       xlink:href="#linearGradient5474-6-5"
       inkscape:collect="always" />
    <linearGradient
       id="linearGradient5474-6-5">
      <stop
         id="stop5476-8-8"
         offset="0"
         style="stop-color:#068f06;stop-opacity:1" />
      <stop
         id="stop5478-9-8"
         offset="1"
         style="stop-color:#affcab;stop-opacity:1;" />
    </linearGradient>
    <linearGradient
       y2="404.58936"
       x2="442.6492"
       y1="157.63818"
       x1="690.36243"
       gradientTransform="matrix(-0.8,-0.46187807,0,1,146.11827,358.12311)"
       gradientUnits="userSpaceOnUse"
       id="linearGradient5651"
       xlink:href="#linearGradient5474-6-5"
       inkscape:collect="always" />
    <inkscape:perspective
       id="perspective5680"
       inkscape:persp3d-origin="0.5 : 0.33333333 : 1"
       inkscape:vp_z="1 : 0.5 : 1"
       inkscape:vp_y="0 : 1000 : 0"
       inkscape:vp_x="0 : 0.5 : 1"
       sodipodi:type="inkscape:persp3d" />
    <linearGradient
       gradientTransform="matrix(-1,0,0,1,588.75889,5.307683)"
       y2="404.58936"
       x2="442.6492"
       y1="157.63818"
       x1="690.36243"
       gradientUnits="userSpaceOnUse"
       id="linearGradient5599-6"
       xlink:href="#linearGradient5474-6-53"
       inkscape:collect="always" />
    <linearGradient
       id="linearGradient5474-6-53">
      <stop
         id="stop5476-8-4"
         offset="0"
         style="stop-color:#068f06;stop-opacity:1" />
      <stop
         id="stop5478-9-4"
         offset="1"
         style="stop-color:#affcab;stop-opacity:1;" />
    </linearGradient>
    <linearGradient
       y2="404.58936"
       x2="442.6492"
       y1="157.63818"
       x1="690.36243"
       gradientTransform="matrix(-0.8,-0.46187807,0,-1,142.07765,1286.0259)"
       gradientUnits="userSpaceOnUse"
       id="linearGradient5689"
       xlink:href="#linearGradient5474-6-53"
       inkscape:collect="always" />
    <inkscape:perspective
       id="perspective5718"
       inkscape:persp3d-origin="0.5 : 0.33333333 : 1"
       inkscape:vp_z="1 : 0.5 : 1"
       inkscape:vp_y="0 : 1000 : 0"
       inkscape:vp_x="0 : 0.5 : 1"
       sodipodi:type="inkscape:persp3d" />
    <linearGradient
       id="linearGradient5474-7">
      <stop
         id="stop5476-6"
         offset="0"
         style="stop-color:#068f06;stop-opacity:1" />
      <stop
         id="stop5478-0"
         offset="1"
         style="stop-color:#affcab;stop-opacity:1;" />
    </linearGradient>
    <inkscape:perspective
       id="perspective5758"
       inkscape:persp3d-origin="0.5 : 0.33333333 : 1"
       inkscape:vp_z="1 : 0.5 : 1"
       inkscape:vp_y="0 : 1000 : 0"
       inkscape:vp_x="0 : 0.5 : 1"
       sodipodi:type="inkscape:persp3d" />
    <linearGradient
       y2="404.58936"
       x2="442.6492"
       y1="157.63818"
       x1="690.36243"
       gradientTransform="matrix(-0.8,-0.46187807,0,1,146.11827,358.12311)"
       gradientUnits="userSpaceOnUse"
       id="linearGradient5651-3"
       xlink:href="#linearGradient5474-6-5-5"
       inkscape:collect="always" />
    <linearGradient
       id="linearGradient5474-6-5-5">
      <stop
         id="stop5476-8-8-3"
         offset="0"
         style="stop-color:#068f06;stop-opacity:1" />
      <stop
         id="stop5478-9-8-2"
         offset="1"
         style="stop-color:#affcab;stop-opacity:1;" />
    </linearGradient>
    <linearGradient
       y2="404.58936"
       x2="442.6492"
       y1="157.63818"
       x1="690.36243"
       gradientTransform="matrix(-0.8,-0.46187807,0,1,1390.6262,297.8142)"
       gradientUnits="userSpaceOnUse"
       id="linearGradient5767"
       xlink:href="#linearGradient5474-6-5-5"
       inkscape:collect="always" />
    <inkscape:perspective
       id="perspective5815"
       inkscape:persp3d-origin="0.5 : 0.33333333 : 1"
       inkscape:vp_z="1 : 0.5 : 1"
       inkscape:vp_y="0 : 1000 : 0"
       inkscape:vp_x="0 : 0.5 : 1"
       sodipodi:type="inkscape:persp3d" />
    <linearGradient
       y2="404.58936"
       x2="442.6492"
       y1="157.63818"
       x1="690.36243"
       gradientTransform="matrix(-0.8,-0.46187807,0,-1,142.07765,1286.0259)"
       gradientUnits="userSpaceOnUse"
       id="linearGradient5689-2"
       xlink:href="#linearGradient5474-6-53-2"
       inkscape:collect="always" />
    <linearGradient
       id="linearGradient5474-6-53-2">
      <stop
         id="stop5476-8-4-3"
         offset="0"
         style="stop-color:#068f06;stop-opacity:1" />
      <stop
         id="stop5478-9-4-7"
         offset="1"
         style="stop-color:#affcab;stop-opacity:1;" />
    </linearGradient>
    <linearGradient
       y2="404.58936"
       x2="442.6492"
       y1="157.63818"
       x1="690.36243"
       gradientTransform="matrix(-0.8,-0.46187807,0,-1,1394.6668,1294.3679)"
       gradientUnits="userSpaceOnUse"
       id="linearGradient5824"
       xlink:href="#linearGradient5474-6-53-2"
       inkscape:collect="always" />
    <inkscape:perspective
       id="perspective5991"
       inkscape:persp3d-origin="0.5 : 0.33333333 : 1"
       inkscape:vp_z="1 : 0.5 : 1"
       inkscape:vp_y="0 : 1000 : 0"
       inkscape:vp_x="0 : 0.5 : 1"
       sodipodi:type="inkscape:persp3d" />
    <linearGradient
       gradientTransform="matrix(-1,0,0,1,588.75889,5.307683)"
       y2="404.58936"
       x2="442.6492"
       y1="157.63818"
       x1="690.36243"
       gradientUnits="userSpaceOnUse"
       id="linearGradient5599-4"
       xlink:href="#linearGradient5474-6-0"
       inkscape:collect="always" />
    <linearGradient
       id="linearGradient5474-6-0">
      <stop
         id="stop5476-8-3"
         offset="0"
         style="stop-color:#068f06;stop-opacity:1" />
      <stop
         id="stop5478-9-88"
         offset="1"
         style="stop-color:#affcab;stop-opacity:1;" />
    </linearGradient>
    <linearGradient
       y2="404.58936"
       x2="442.6492"
       y1="157.63818"
       x1="690.36243"
       gradientTransform="matrix(-1,0,0,1,538.22153,486.3854)"
       gradientUnits="userSpaceOnUse"
       id="linearGradient6000"
       xlink:href="#linearGradient5474-6-0"
       inkscape:collect="always" />
    <inkscape:perspective
       id="perspective6031"
       inkscape:persp3d-origin="0.5 : 0.33333333 : 1"
       inkscape:vp_z="1 : 0.5 : 1"
       inkscape:vp_y="0 : 1000 : 0"
       inkscape:vp_x="0 : 0.5 : 1"
       sodipodi:type="inkscape:persp3d" />
    <linearGradient
       inkscape:collect="always"
       xlink:href="#linearGradient5474-6-0"
       id="linearGradient6046"
       gradientUnits="userSpaceOnUse"
       gradientTransform="matrix(-1,0,0,1,538.22153,486.3854)"
       x1="690.36243"
       y1="157.63818"
       x2="442.6492"
       y2="404.58936" />
  </defs>
  <sodipodi:namedview
     id="base"
     pagecolor="#ffffff"
     bordercolor="#666666"
     borderopacity="1.0"
     inkscape:pageopacity="0.0"
     inkscape:pageshadow="2"
     inkscape:zoom="0.49497475"
     inkscape:cx="447.05769"
     inkscape:cy="540.45074"
     inkscape:document-units="px"
     inkscape:current-layer="layer1"
     showgrid="false"
     inkscape:window-width="1280"
     inkscape:window-height="750"
     inkscape:window-x="0"
     inkscape:window-y="25"
     inkscape:window-maximized="1" />
  <metadata
     id="metadata7">
    <rdf:RDF>
      <cc:Work
         rdf:about="">
        <dc:format>image/svg+xml</dc:format>
        <dc:type
           rdf:resource="http://purl.org/dc/dcmitype/StillImage" />
        <dc:title></dc:title>
      </cc:Work>
    </rdf:RDF>
  </metadata>
  <g
     inkscape:label="Layer 1"
     inkscape:groupmode="layer"
     id="layer1">
    <g
       id="g5165"
       transform="translate(-3.7955068,-203.84774)">
      <path
         sodipodi:nodetypes="cacsszca"
         id="path2816"
         d="m 260,592.36218 c 20.20305,20.20305 65.51124,20.20305 85.71429,0 27.61083,-27.61083 0,-117.14285 0,-117.14285 0,0 38.64377,4.21337 42.85714,0 8.82129,-8.82129 -68.94503,-124.28572 -85.71429,-124.28572 -17.49818,0 -97.07072,116.50071 -88.57143,125 8.49929,8.49929 45.71429,0 45.71429,0 0,0 -27.44248,88.98609 0,116.42857 z"
         style="fill:url(#linearGradient5170);fill-opacity:1;stroke:#000000;stroke-width:1px;stroke-linecap:butt;stroke-linejoin:miter;stroke-opacity:1" />
      <path
         sodipodi:nodetypes="ccsc"
         id="path2816-4"
         d="m 348.91239,529.1975 c -2.39044,66.76963 -23.97377,64.84889 -64.75,66.96875 18.84832,5.76206 42.89877,2.31999 55.53125,-10.3125 11.40821,-11.40821 11.84298,-35.11458 9.21875,-56.65625 z"
         style="fill:#ffffff;fill-opacity:1;stroke:none" />
      <path
         sodipodi:nodetypes="ccsc"
         id="path2816-4-8-8"
         d="m 371.6094,446.49762 c 7.73536,32.21241 -9.7831,14.92735 -25.28125,23.90625 7.41393,0.72695 30.50403,2.74597 33.5625,-0.3125 2.11311,-2.11311 -1.57386,-11.37131 -8.28125,-23.59375 z"
         style="fill:#ffffff;fill-opacity:1;stroke:none" />
    </g>
    <g
       id="g5457"
       transform="translate(-4.2857143,102.85714)">
      <path
         sodipodi:nodetypes="cacsszca"
         id="path2816-6"
         d="m 344.50521,577.58946 c -20.20305,-20.2031 -65.51125,-20.2031 -85.7143,0 -27.61083,27.61081 0,117.14283 0,117.14283 0,0 -38.64377,-4.21337 -42.85714,0 -8.82129,8.82129 68.94503,124.28572 85.7143,124.28572 17.49818,0 97.07072,-116.50071 88.57143,-125 -8.49929,-8.49929 -45.71429,0 -45.71429,0 0,0 27.44248,-88.98609 0,-116.42855 z"
         style="fill:url(#linearGradient5144);fill-opacity:1;stroke:#000000;stroke-width:1px;stroke-linecap:butt;stroke-linejoin:miter;stroke-opacity:1" />
      <path
         sodipodi:nodetypes="ccssc"
         id="path2816-6-8"
         d="m 377.73958,709.39738 c -22.74344,47.7663 -64.67978,93.76482 -69.74556,95.56917 -5.92702,3.62768 -18.04841,8.75587 -2.39134,5.72541 15.01767,-2.9067 84.86732,-101.85142 77.4375,-109.28125 -1.88985,-1.88984 -3.38389,6.30023 -5.3006,7.98667 z"
         style="fill:#ffffff;fill-opacity:1;stroke:none" />
      <path
         sodipodi:nodetypes="ccsc"
         id="path2816-6-1"
         d="m 334.67143,580.06282 c 21.26786,21.16667 10.75,45.19048 12.375,86 5.31011,-24.28932 10.94521,-64.39856 -5,-80.34375 -2.15205,-2.15206 -4.64163,-4.03827 -7.375,-5.65625 z"
         style="fill:#ffffff;fill-opacity:1;stroke:none" />
    </g>
    <g
       id="g5449"
       transform="translate(34.285714,20)">
      <path
         sodipodi:nodetypes="cacsszca"
         id="path2816-6-4"
         d="m 445.43332,468.04559 c -20.2031,20.20305 -20.2031,65.51125 0,85.7143 27.61081,27.61083 117.14283,0 117.14283,0 0,0 -4.21337,38.64377 0,42.85714 8.82129,8.82129 124.28572,-68.94503 124.28572,-85.7143 0,-17.49818 -116.50071,-97.07072 -125,-88.57143 -8.49929,8.49929 0,45.71429 0,45.71429 0,0 -88.98609,-27.44248 -116.42855,0 z"
         style="fill:url(#linearGradient5274);fill-opacity:1;stroke:#000000;stroke-width:1px;stroke-linecap:butt;stroke-linejoin:miter;stroke-opacity:1" />
      <path
         sodipodi:nodetypes="cccccc"
         id="path2816-6-4-8"
         d="m 451.85228,547.28406 c 27.25925,25.59216 111.70823,-0.66505 111.70823,-0.66505 -60.54164,7.82236 -79.95581,5.97113 -111.70823,0.66505 z m 111.70823,40.81046 c 8.46527,8.53335 119.2954,-66.6989 119.2954,-82.9208 -35.52191,27.89709 -75.43993,54.42083 -119.2954,82.9208 z"
         style="fill:#ffffff;fill-opacity:1;stroke:none" />
    </g>
    <g
       id="g5453"
       transform="translate(-37.142857,21.428571)">
      <path
         sodipodi:nodetypes="cacsszca"
         id="path2816-6-4-4"
         d="m 144.56668,548.10735 c 20.20311,-20.20305 20.20311,-65.51126 0,-85.71431 -27.61081,-27.61083 -117.142831,0 -117.142831,0 0,0 4.21338,-38.64377 0,-42.85714 -8.82128,-8.82129 -124.285714,68.94503 -124.285714,85.71431 0,17.49818 116.500714,97.07072 125.000004,88.57143 8.49928,-8.49929 0,-45.71429 0,-45.71429 0,0 88.986081,27.44248 116.428541,0 z"
         style="fill:url(#linearGradient5312);fill-opacity:1;stroke:#000000;stroke-width:1px;stroke-linecap:butt;stroke-linejoin:miter;stroke-opacity:1" />
      <path
         sodipodi:nodetypes="ccsccscc"
         id="path2816-6-4-4-8"
         d="m 136.69571,464.31974 c 29.3283,73.83155 -14.67252,93.13009 -102.670806,79.10291 22.882707,5.51528 81.592176,17.18897 102.670806,-2.40558 19.44253,-18.07359 19.44253,-58.62372 0,-76.69733 z m -157.753442,97.59774 c 22.6260181,13.51519 42.443417,23.02743 45.706153,19.99441 7.050504,-6.55411 1.946483,-32.09909 0.40329,-39.05159 4.727796,53.81631 -14.444269,28.86271 -46.109443,19.05718 z"
         style="fill:#ffffff;fill-opacity:1;stroke:none" />
    </g>
    <g
       id="g5620">
      <path
         sodipodi:nodetypes="czczzzczcc"
         id="path5464"
         d="m 517.94632,403.82357 c 0,0 -19.74272,-86.08246 2.1715,-108.44301 21.91423,-22.36055 63.15711,-16.36969 63.15711,-16.36969 0,0 -6.50988,45.43342 0,48.6155 6.50986,3.18208 106.51725,-69.07871 106.52028,-85.77221 0.003,-16.69349 -102.13236,-89.60418 -108.86972,-83.25858 -6.73736,6.34558 1.60429,48.64957 1.60429,48.64957 0,0 -71.4468,-8.64325 -110.39912,31.10241 -38.95231,39.74566 -27.27299,165.6746 -27.27299,165.6746 l 73.08865,-0.19859 z"
         style="fill:url(#linearGradient5472);stroke:#000000;stroke-width:1.13438451000000007px;stroke-linecap:butt;stroke-linejoin:miter;stroke-opacity:1;fill-opacity:1" />
      <path
         sodipodi:nodetypes="ccccccc"
         id="path5464-7"
         d="m 585.80973,319.11054 c 6.50986,3.18208 95.41647,-61.00653 95.41957,-77.70003 -31.27651,21.06107 -58.89141,43.20533 -95.41957,77.70003 z m -78.62342,33.83201 c -0.21875,49.44643 4.5625,42.46429 -60.65625,47.625 l 65.88594,-1.2289 c 0,0 -3.10568,-21.44842 -5.22969,-46.3961 z"
         style="fill:#f8f9ff;fill-opacity:1;stroke:none;stroke-width:1.13438451000000007px;stroke-linecap:butt;stroke-linejoin:miter;stroke-opacity:1" />
    </g>
    <path
       sodipodi:type="star"
       style="color:#000000;fill:url(#linearGradient5632);fill-opacity:1;fill-rule:nonzero;stroke:#030000;stroke-width:1;stroke-opacity:1;marker:none;visibility:visible;display:inline;overflow:visible;enable-background:accumulate;stroke-miterlimit:4;stroke-dasharray:none"
       id="path5624"
       sodipodi:sides="8"
       sodipodi:cx="257.14285"
       sodipodi:cy="463.79074"
       sodipodi:r1="124.94897"
       sodipodi:r2="78.730362"
       sodipodi:arg1="1.1839206"
       sodipodi:arg2="1.5766196"
       inkscape:flatsided="true"
       inkscape:rounded="0"
       inkscape:randomized="0"
       d="M 304.28571,579.50502 208.65553,578.94813 141.42857,510.9336 141.98546,415.30342 210,348.07646 l 95.63017,0.55689 67.22697,68.01453 -0.5569,95.63018 -68.01453,67.22696 z"
       transform="translate(37.142857,67.142857)" />
    <path
       style="fill:url(#linearGradient5651);fill-opacity:1;stroke:#000000;stroke-width:1.01462436px;stroke-linecap:butt;stroke-linejoin:miter;stroke-opacity:1"
       d="m -268.23878,522.71864 c 0,0 15.79418,-76.96373 -1.7372,-109.44598 -17.53138,-32.48225 -50.52569,-45.54057 -50.52569,-45.54057 0,0 5.2079,48.44019 0,48.6155 -5.20789,0.17532 -85.2138,-118.27669 -85.21623,-134.97158 -0.002,-16.69465 81.70589,-42.43149 87.09578,-32.97405 5.38989,9.45742 -1.28343,47.90859 -1.28343,47.90859 0,0 57.15744,24.35646 88.31928,82.09333 31.16186,57.73688 21.8184,178.27139 21.8184,178.27139 l -58.47091,-33.95663 z"
       id="path5464-5-0"
       sodipodi:nodetypes="czczzzczcc" />
    <path
       style="fill:url(#linearGradient5689);fill-opacity:1;stroke:#000000;stroke-width:1.01462436px;stroke-linecap:butt;stroke-linejoin:miter;stroke-opacity:1"
       d="m -272.2794,642.97427 c 0,0 15.79418,95.20119 -1.7372,107.44004 -17.53138,12.23885 -50.52569,-12.80119 -50.52569,-12.80119 0,0 5.2079,-42.42665 0,-48.6155 -5.20789,-6.18884 -85.2138,19.88073 -85.21623,36.57282 -0.002,16.69233 81.70589,136.77687 87.09578,133.54311 5.38989,-3.23374 -1.28343,-49.39055 -1.28343,-49.39055 0,0 57.15744,41.64296 88.31928,19.88851 31.16186,-21.75442 21.8184,-153.07779 21.8184,-153.07779 l -58.47091,-33.55945 z"
       id="path5464-5-07"
       sodipodi:nodetypes="czczzzczcc" />
    <path
       style="fill:url(#linearGradient5767);fill-opacity:1;stroke:#000000;stroke-width:1.01462436px;stroke-linecap:butt;stroke-linejoin:miter;stroke-opacity:1"
       d="m 976.26915,462.40973 c 0,0 15.79418,-76.96373 -1.7372,-109.44598 -17.53138,-32.48225 -50.52568,-45.54057 -50.52568,-45.54057 0,0 5.2079,48.44019 0,48.6155 -5.20789,0.17532 -85.2138,-118.27669 -85.21623,-134.97158 -0.002,-16.69465 81.70589,-42.43149 87.09578,-32.97405 5.38989,9.45742 -1.28343,47.90859 -1.28343,47.90859 0,0 57.15743,24.35646 88.31931,82.09333 31.1618,57.73688 21.8184,178.27139 21.8184,178.27139 l -58.47095,-33.95663 z"
       id="path5464-5-0-5"
       sodipodi:nodetypes="czczzzczcc" />
    <path
       style="fill:url(#linearGradient5824);fill-opacity:1;stroke:#000000;stroke-width:1.01462436px;stroke-linecap:butt;stroke-linejoin:miter;stroke-opacity:1"
       d="m 980.30977,651.31625 c 0,0 15.7942,95.20119 -1.7372,107.44004 -17.5314,12.23885 -50.52569,-12.80119 -50.52569,-12.80119 0,0 5.2079,-42.42665 0,-48.6155 -5.20789,-6.18884 -85.2138,19.88073 -85.21623,36.57282 -0.002,16.69233 81.70589,136.77687 87.09578,133.54311 5.38989,-3.23374 -1.28343,-49.39055 -1.28343,-49.39055 0,0 57.15747,41.64296 88.3193,19.88851 31.1619,-21.75442 21.8184,-153.07779 21.8184,-153.07779 l -58.47093,-33.55945 z"
       id="path5464-5-07-7"
       sodipodi:nodetypes="czczzzczcc" />
    <g
       id="g6049">
      <path
         sodipodi:nodetypes="czczzzczcc"
         id="path5464-5"
         d="m 70.812573,409.13126 c 0,0 19.74272,-86.08246 -2.1715,-108.44301 C 46.726843,278.3277 5.4839578,284.31856 5.4839578,284.31856 c 0,0 6.5098802,45.43342 0,48.6155 -6.50986,3.18208 -106.5172478,-69.07871 -106.5202778,-85.77221 -0.003,-16.69349 102.1323578,-89.60418 108.8697178,-83.25858 6.7373602,6.34558 -1.60429,48.64957 -1.60429,48.64957 0,0 71.4468052,-8.64325 110.3991122,31.10241 38.95232,39.74566 27.273,165.6746 27.273,165.6746 l -73.088647,-0.19859 z"
         style="fill:url(#linearGradient5599);fill-opacity:1;stroke:#000000;stroke-width:1.13438451000000007px;stroke-linecap:butt;stroke-linejoin:miter;stroke-opacity:1" />
      <path
         sodipodi:nodetypes="ccsccccc"
         id="path5464-5-6"
         d="m 2.9241076,286.19196 c -1.809537,31.09302 0.421537,38.95252 -31.1874996,25.09375 15.689372,10.77794 28.18239557,18.05649 30.3437496,17 4.985044,-2.43673 2.358562,-29.48508 0.84375,-42.09375 z m 138.9375024,59.625 c -0.0897,58.45337 -5.45419,56.29759 -65.142859,58.6875 l 63.799109,0.1875 c 0,0 2.42919,-26.42827 1.34375,-58.875 z"
         style="fill:#ffffff;fill-opacity:1;stroke:none;stroke-width:1.13438451000000007px;stroke-linecap:butt;stroke-linejoin:miter;stroke-opacity:1" />
    </g>
  </g>
</svg>
