<?xml version="1.0" encoding="UTF-8" standalone="no"?>
<!-- Created with Inkscape (http://www.inkscape.org/) -->

<svg
   xmlns:dc="http://purl.org/dc/elements/1.1/"
   xmlns:cc="http://creativecommons.org/ns#"
   xmlns:rdf="http://www.w3.org/1999/02/22-rdf-syntax-ns#"
   xmlns:svg="http://www.w3.org/2000/svg"
   xmlns="http://www.w3.org/2000/svg"
   xmlns:sodipodi="http://sodipodi.sourceforge.net/DTD/sodipodi-0.dtd"
   xmlns:inkscape="http://www.inkscape.org/namespaces/inkscape"
   width="744.09448819"
   height="1052.3622047"
   id="svg6464"
   version="1.1"
   inkscape:version="0.48.1 r9760"
   sodipodi:docname="joint_diagram.svg"
   inkscape:export-filename="/media/Iomega_HDD/joint_diagram3.png"
   inkscape:export-xdpi="43.156902"
   inkscape:export-ydpi="43.156902">
  <defs
     id="defs6466">
    <marker
       inkscape:stockid="Arrow1Mend"
       orient="auto"
       refY="0.0"
       refX="0.0"
       id="Arrow1Mend"
       style="overflow:visible;">
      <path
         id="path3907"
         d="M 0.0,0.0 L 5.0,-5.0 L -12.5,0.0 L 5.0,5.0 L 0.0,0.0 z "
         style="fill-rule:evenodd;stroke:#000000;stroke-width:1.0pt;marker-start:none;"
         transform="scale(0.4) rotate(180) translate(10,0)" />
    </marker>
    <marker
       inkscape:stockid="Arrow1Lstart"
       orient="auto"
       refY="0"
       refX="0"
       id="Arrow1Lstart-8"
       style="overflow:visible">
      <path
         inkscape:connector-curvature="0"
         id="path3898-8"
         d="M 0,0 5,-5 -12.5,0 5,5 0,0 z"
         style="fill-rule:evenodd;stroke:#000000;stroke-width:1pt;marker-start:none"
         transform="matrix(0.8,0,0,0.8,10,0)" />
    </marker>
    <marker
       inkscape:stockid="Arrow1Lstart"
       orient="auto"
       refY="0"
       refX="0"
       id="marker6432"
       style="overflow:visible">
      <path
         inkscape:connector-curvature="0"
         id="path6434"
         d="M 0,0 5,-5 -12.5,0 5,5 0,0 z"
         style="fill-rule:evenodd;stroke:#000000;stroke-width:1pt;marker-start:none"
         transform="matrix(0.8,0,0,0.8,10,0)" />
    </marker>
    <marker
       inkscape:stockid="Arrow1Lend"
       orient="auto"
       refY="0"
       refX="0"
       id="Arrow1Lend"
       style="overflow:visible">
      <path
         inkscape:connector-curvature="0"
         id="path3901"
         d="M 0,0 5,-5 -12.5,0 5,5 0,0 z"
         style="fill-rule:evenodd;stroke:#000000;stroke-width:1pt;marker-start:none"
         transform="matrix(-0.8,0,0,-0.8,-10,0)" />
    </marker>
    <marker
       inkscape:stockid="Arrow1Lend"
       orient="auto"
       refY="0"
       refX="0"
       id="marker6438"
       style="overflow:visible">
      <path
         inkscape:connector-curvature="0"
         id="path6440"
         d="M 0,0 5,-5 -12.5,0 5,5 0,0 z"
         style="fill-rule:evenodd;stroke:#000000;stroke-width:1pt;marker-start:none"
         transform="matrix(-0.8,0,0,-0.8,-10,0)" />
    </marker>
    <marker
       inkscape:stockid="Arrow1Lend"
       orient="auto"
       refY="0"
       refX="0"
       id="Arrow1Lend-9"
       style="overflow:visible">
      <path
         inkscape:connector-curvature="0"
         id="path3901-9"
         d="M 0,0 5,-5 -12.5,0 5,5 0,0 z"
         style="fill-rule:evenodd;stroke:#000000;stroke-width:1pt;marker-start:none"
         transform="matrix(-0.8,0,0,-0.8,-10,0)" />
    </marker>
    <marker
       inkscape:stockid="Arrow1Mend"
       orient="auto"
       refY="0"
       refX="0"
       id="Arrow1Mend-4"
       style="overflow:visible">
      <path
         inkscape:connector-curvature="0"
         id="path3907-7"
         d="M 0,0 5,-5 -12.5,0 5,5 0,0 z"
         style="fill-rule:evenodd;stroke:#000000;stroke-width:1pt;marker-start:none"
         transform="matrix(-0.4,0,0,-0.4,-4,0)" />
    </marker>
    <marker
       inkscape:stockid="Arrow1Lend"
       orient="auto"
       refY="0"
       refX="0"
       id="Arrow1Lend-3"
       style="overflow:visible">
      <path
         inkscape:connector-curvature="0"
         id="path3901-6"
         d="M 0,0 5,-5 -12.5,0 5,5 0,0 z"
         style="fill-rule:evenodd;stroke:#000000;stroke-width:1pt;marker-start:none"
         transform="matrix(-0.8,0,0,-0.8,-10,0)" />
    </marker>
    <marker
       inkscape:stockid="Arrow1Lend"
       orient="auto"
       refY="0"
       refX="0"
       id="Arrow1Lend-2"
       style="overflow:visible">
      <path
         inkscape:connector-curvature="0"
         id="path3901-1"
         d="M 0,0 5,-5 -12.5,0 5,5 0,0 z"
         style="fill-rule:evenodd;stroke:#000000;stroke-width:1pt;marker-start:none"
         transform="matrix(-0.8,0,0,-0.8,-10,0)" />
    </marker>
    <marker
       inkscape:stockid="Arrow1Mend"
       orient="auto"
       refY="0"
       refX="0"
       id="Arrow1Mend-4-7"
       style="overflow:visible">
      <path
         inkscape:connector-curvature="0"
         id="path3907-7-7"
         d="M 0,0 5,-5 -12.5,0 5,5 0,0 z"
         style="fill-rule:evenodd;stroke:#000000;stroke-width:1pt;marker-start:none"
         transform="matrix(-0.4,0,0,-0.4,-4,0)" />
    </marker>
  </defs>
  <sodipodi:namedview
     id="base"
     pagecolor="#ffffff"
     bordercolor="#666666"
     borderopacity="1.0"
     inkscape:pageopacity="0.0"
     inkscape:pageshadow="2"
     inkscape:zoom="0.98994949"
     inkscape:cx="156.28362"
     inkscape:cy="689.4842"
     inkscape:document-units="px"
     inkscape:current-layer="layer1"
     showgrid="false"
     inkscape:window-width="1280"
     inkscape:window-height="750"
     inkscape:window-x="0"
     inkscape:window-y="25"
     inkscape:window-maximized="1" />
  <metadata
     id="metadata6469">
    <rdf:RDF>
      <cc:Work
         rdf:about="">
        <dc:format>image/svg+xml</dc:format>
        <dc:type
           rdf:resource="http://purl.org/dc/dcmitype/StillImage" />
        <dc:title></dc:title>
      </cc:Work>
    </rdf:RDF>
  </metadata>
  <g
     inkscape:label="Layer 1"
     inkscape:groupmode="layer"
     id="layer1">
    <g
       id="g4183-2-4"
       transform="matrix(-1,0,0,1,-13.36243,477.87526)">
      <rect
         transform="matrix(0.86602641,-0.49999826,0,1,0,0)"
         ry="0.33153132"
         y="-703.96375"
         x="-668.91931"
         height="98.39006"
         width="99.63678"
         id="rect3652-9-5-5"
         style="fill:#ffffff;fill-opacity:1;fill-rule:nonzero;stroke:#000000;stroke-width:1.62010503;stroke-linecap:round;stroke-linejoin:miter;stroke-miterlimit:4;stroke-opacity:1;stroke-dasharray:none;stroke-dashoffset:0" />
      <g
         transform="matrix(1,0.57734758,0,1,-47.270708,225.86464)"
         id="g4098-1-1">
        <path
           style="fill:#ffffff;fill-opacity:1;fill-rule:nonzero;stroke:#000000;stroke-width:1.87296557;stroke-linecap:round;stroke-linejoin:miter;stroke-miterlimit:4;stroke-opacity:1;stroke-dasharray:none;stroke-dashoffset:0"
           d="m -446.57319,-287.94465 c 0.20011,0 0.35628,0.17808 0.35628,0.40625 l 0,0.25 c 0.29165,-0.007 0.58396,-0.0312 0.877,-0.0312 23.73264,0 42.973,21.93884 42.973,49 0,27.06116 -19.24036,49 -42.973,49 -0.36624,0 -0.7322,-0.0209 -1.09625,-0.0312 -0.0432,0.0208 -0.087,0.0312 -0.13703,0.0312 l -85.75416,0 c -0.2001,0 -0.38368,-0.20933 -0.38368,-0.4375 l 0,-97.78125 c 0,-0.22817 0.18358,-0.40625 0.38368,-0.40625 l 85.75416,0 z"
           id="rect2830-6-4-6-50-0"
           inkscape:connector-curvature="0" />
      </g>
      <g
         transform="matrix(1,0.57734758,0,1,8.2178276,-309.96503)"
         id="g4098-5-5-7">
        <path
           style="fill:#ffffff;fill-opacity:1;fill-rule:nonzero;stroke:#000000;stroke-width:1.87296557;stroke-linecap:round;stroke-linejoin:miter;stroke-miterlimit:4;stroke-opacity:1;stroke-dasharray:none;stroke-dashoffset:0"
           d="m -415.14462,179.62443 c 0.20011,0 0.35628,0.17808 0.35628,0.40625 l 0,0.25 c 0.29165,-0.007 0.58396,-0.0312 0.877,-0.0312 23.73264,0 42.973,21.93884 42.973,49 0,27.06116 -19.24036,49 -42.973,49 -0.36624,0 -0.7322,-0.0209 -1.09625,-0.0312 -0.0432,0.0208 -0.087,0.0312 -0.13703,0.0312 l -85.75416,0 c -0.2001,0 -0.38368,-0.20933 -0.38368,-0.4375 l 0,-97.78125 c 0,-0.22817 0.18358,-0.40625 0.38368,-0.40625 l 85.75416,0 z"
           id="rect2830-6-4-6-5-3-8"
           inkscape:connector-curvature="0" />
        <path
           sodipodi:type="arc"
           style="fill:#ffffff;fill-opacity:1;fill-rule:nonzero;stroke:#000000;stroke-width:2;stroke-linecap:round;stroke-linejoin:miter;stroke-miterlimit:4;stroke-opacity:1;stroke-dasharray:none;stroke-dashoffset:0"
           id="path3733-8-7-7-8"
           sodipodi:cx="215.00548"
           sodipodi:cy="782.46167"
           sodipodi:rx="23.635353"
           sodipodi:ry="23.635353"
           d="m 238.64083,782.46167 c 0,13.05344 -10.58191,23.63535 -23.63535,23.63535 -13.05345,0 -23.63536,-10.58191 -23.63536,-23.63535 0,-13.05345 10.58191,-23.63535 23.63536,-23.63535 13.05344,0 23.63535,10.5819 23.63535,23.63535 z"
           transform="matrix(0.877,0,0,1,-649.46347,-554.19554)" />
      </g>
      <path
         sodipodi:nodetypes="cccccssccsscccc"
         d="m -579.45766,-369.23551 86.90625,-50.12499 85.75,49.49999 c 0.20011,0.11553 0.375,0.39683 0.375,0.625 l 0,0.25 c 0.29165,0.16138 0.58196,0.29956 0.875,0.46875 23.73264,13.70198 42.96875,46.75134 42.96875,73.8125 0,14.11062 -5.25324,23.79866 -13.625,27.90625 -8.37176,4.10759 -93.49973,53.93327 -85.78125,49.53125 7.71848,-4.40202 12.46875,-13.83942 12.46875,-27.3125 0,-27.06116 -19.23611,-60.11052 -42.96875,-73.8125 -0.29304,-0.16919 -0.58335,-0.30737 -0.875,-0.46875 l 0,-0.25 c 0,-0.22817 -0.14364,-0.50947 -0.34375,-0.625 l -85.75,-49.5 z"
         style="fill:#ffffff;fill-opacity:1;fill-rule:nonzero;stroke:#000000;stroke-width:1.87296557;stroke-linecap:round;stroke-linejoin:miter;stroke-miterlimit:4;stroke-opacity:1;stroke-dasharray:none;stroke-dashoffset:0"
         id="rect2830-6-4-6-5-9-0-6"
         inkscape:connector-curvature="0" />
    </g>
    <g
       id="g3046-0-4"
       transform="matrix(-0.877,0.50633383,0,1,-67.75229,342.98456)">
      <path
         inkscape:connector-curvature="0"
         id="rect2830-9-7-6-6"
         d="m -424.31115,132.23809 c 0,-0.22817 -0.20933,-0.40625 -0.4375,-0.40625 l -97.78125,0 0,-5e-5 c -0.22817,0 -0.40625,0.17808 -0.40625,0.40625 l 0,0.25 c -0.33255,-0.007 -0.66586,-0.0312 -1,-0.0312 -27.06116,0 -49,21.93884 -49,49 0,27.06116 21.93884,49 49,49 0.41761,0 0.83489,-0.0209 1.25,-0.0312 0.0493,0.0208 0.0992,0.0312 0.15625,0.0312 l 97.78125,0 c 0.22817,0 0.4375,-0.20933 0.4375,-0.4375"
         style="fill:#ffffff;fill-opacity:1;fill-rule:nonzero;stroke:#000000;stroke-width:2;stroke-linecap:round;stroke-linejoin:miter;stroke-miterlimit:4;stroke-opacity:1;stroke-dasharray:none;stroke-dashoffset:0"
         sodipodi:nodetypes="ccccccssssccc" />
    </g>
    <g
       id="g3808-8-3-6"
       transform="matrix(-0.877,-0.50633383,0,1,795.72416,171.15147)"
       style="stroke:#000000;stroke-opacity:1">
      <rect
         id="rect4040-5-0"
         ry="0.33153132"
         y="373.16714"
         x="560.80499"
         height="98.39006"
         width="98.39006"
         style="fill:#ffffff;fill-opacity:1;fill-rule:nonzero;stroke:#000000;stroke-width:1.60993719;stroke-linecap:round;stroke-linejoin:miter;stroke-miterlimit:4;stroke-opacity:1;stroke-dasharray:none;stroke-dashoffset:0" />
      <rect
         ry="27.779039"
         y="373.16714"
         x="560.80499"
         height="98.39006"
         width="98.39006"
         id="rect3652-0-6-9-9"
         style="fill:#ffffff;fill-opacity:1;fill-rule:nonzero;stroke:#000000;stroke-width:1.60993719;stroke-linecap:round;stroke-linejoin:miter;stroke-miterlimit:4;stroke-opacity:1;stroke-dasharray:none;stroke-dashoffset:0" />
    </g>
    <path
       inkscape:connector-curvature="0"
       id="rect2830-9-7-9-7-9-7"
       style="fill:#ffffff;fill-opacity:1;stroke:#000000;stroke-width:1.87296557;stroke-linecap:round;stroke-linejoin:miter;stroke-miterlimit:4;stroke-opacity:1;stroke-dasharray:none;stroke-dashoffset:0"
       d="m 423.25452,207.36212 c 3.17643,2.07474 -83.75017,-47.10364 -86.9266,-49.17838 -3.17643,-2.07473 -6.89198,-3.26328 -11.03125,-3.4375 -6.08898,-0.25627 -13.08355,1.65563 -20.5,5.9375 -0.29304,0.16919 -0.58335,0.35587 -0.875,0.53125 l 0,-0.25 c 0,-0.22815 -0.14364,-0.33428 -0.34375,-0.21875 l -85.75,49.53125 c -0.20011,0.11553 -0.40625,0.39683 -0.40625,0.625 0,0.22817 86.9266,49.40655 86.9266,49.17838 0,-0.22817 0.20614,-0.50947 0.40625,-0.625 l 85.75,-49.53125 c 0.20011,-0.11553 0.34375,-0.009 0.34375,0.21875 l 0,0.25 c 0.29165,-0.17538 0.58196,-0.36206 0.875,-0.53125 7.41645,-4.28187 14.41102,-6.19378 20.5,-5.9375 4.13927,0.17421 7.85482,1.36276 11.03125,3.4375 z"
       sodipodi:nodetypes="ccssccccccccccssc" />
    <text
       xml:space="preserve"
       style="font-size:37.22364807px;font-style:normal;font-weight:normal;line-height:125%;letter-spacing:0px;word-spacing:0px;fill:#000000;fill-opacity:1;stroke:none;font-family:Bitstream Vera Sans"
       x="417.14111"
       y="466.35107"
       id="text6541"
       sodipodi:linespacing="125%"
       transform="matrix(0.93059121,-0.53727458,0,1.0745857,0,0)"><tspan
         sodipodi:role="line"
         id="tspan6543"
         x="417.14111"
         y="466.35107">2</tspan></text>
    <g
       transform="matrix(0.93059121,0.53727458,0,1.0745857,26.42857,-493.57143)"
       style="font-size:37.22364807px;font-style:normal;font-weight:normal;line-height:125%;letter-spacing:0px;word-spacing:0px;fill:#000000;fill-opacity:0.39047618;stroke:none;font-family:Bitstream Vera Sans"
       id="text6549">
      <path
         d="m 538.58831,308.39451 -9.26956,14.48596 9.26956,0 0,-14.48596 m -0.96331,-3.19891 4.6166,0 0,17.68487 3.87141,0 0,3.0535 -3.87141,0 0,6.39782 -3.65329,0 0,-6.39782 -12.25036,0 0,-3.54424 11.28705,-17.19413"
         id="path7086"
         inkscape:connector-curvature="0"
         style="fill:#000000;fill-opacity:0.39047618" />
    </g>
    <path
       sodipodi:type="arc"
       style="color:#000000;fill:none;stroke:#000000;stroke-width:5.35070038;stroke-linecap:round;stroke-linejoin:miter;stroke-miterlimit:4;stroke-opacity:1;stroke-dasharray:none;stroke-dashoffset:0;marker:none;marker-end:url(#Arrow1Mend);visibility:visible;display:inline;overflow:visible;enable-background:accumulate"
       id="path3125-7"
       sodipodi:cx="-597.74573"
       sodipodi:cy="677.24622"
       sodipodi:rx="88.441971"
       sodipodi:ry="88.441971"
       d="m -533.94481,738.4951 a 88.441971,88.441971 0 1 1 -5.71393,-127.94134"
       sodipodi:start="0.76499283"
       sodipodi:end="5.4289307"
       sodipodi:open="true"
       transform="matrix(0.27550299,-0.15906099,0,0.31813278,562.36081,-51.930466)" />
    <path
       sodipodi:type="arc"
       style="color:#000000;fill:none;stroke:#000000;stroke-width:5.35070038;stroke-linecap:round;stroke-linejoin:miter;stroke-miterlimit:4;stroke-opacity:1;stroke-dasharray:none;stroke-dashoffset:0;marker:none;marker-end:url(#Arrow1Mend);visibility:visible;display:inline;overflow:visible;enable-background:accumulate"
       id="path3125-7-8"
       sodipodi:cx="-597.74573"
       sodipodi:cy="677.24622"
       sodipodi:rx="88.441971"
       sodipodi:ry="88.441971"
       d="m -533.94481,738.4951 a 88.441971,88.441971 0 1 1 -5.71393,-127.94134"
       sodipodi:start="0.76499283"
       sodipodi:end="5.4289307"
       sodipodi:open="true"
       transform="matrix(0.27550299,-0.15906099,0,0.31813278,638.78938,-95.601396)" />
    <path
       sodipodi:type="arc"
       style="opacity:0.4889868;color:#000000;fill:none;stroke:#000000;stroke-width:5.20211935;stroke-linecap:round;stroke-linejoin:miter;stroke-miterlimit:4;stroke-opacity:1;stroke-dasharray:none;stroke-dashoffset:0;marker:none;marker-end:url(#Arrow1Mend-4);visibility:visible;display:inline;overflow:visible;enable-background:accumulate"
       id="path3125-4-1"
       sodipodi:cx="-597.74573"
       sodipodi:cy="677.24622"
       sodipodi:rx="88.441971"
       sodipodi:ry="88.441971"
       d="m -533.94481,738.4951 a 88.441971,88.441971 0 1 1 -5.71393,-127.94134"
       sodipodi:start="0.76499283"
       sodipodi:end="5.4289307"
       sodipodi:open="true"
       transform="matrix(-0.35777389,-0.20655989,0,0.41313382,308.9297,-264.99101)" />
    <text
       xml:space="preserve"
       style="font-size:40px;font-style:normal;font-weight:normal;line-height:125%;letter-spacing:0px;word-spacing:0px;fill:#000000;fill-opacity:1;stroke:none;font-family:Bitstream Vera Sans"
       x="247.13055"
       y="150.40143"
       id="text3026"
       sodipodi:linespacing="125%"
       transform="matrix(1,0.57734758,0,1,0,0)"><tspan
         sodipodi:role="line"
         x="247.13055"
         y="150.40143"
         id="tspan3034">1</tspan></text>
    <text
       xml:space="preserve"
       style="font-size:36.44173431px;font-style:normal;font-weight:normal;line-height:125%;letter-spacing:0px;word-spacing:0px;fill:#000000;fill-opacity:1;stroke:none;font-family:Bitstream Vera Sans"
       x="507.66705"
       y="457.17444"
       id="text3042"
       sodipodi:linespacing="125%"
       transform="matrix(0.91104336,-0.52598868,0,1.0976426,0,0)"><tspan
         sodipodi:role="line"
         id="tspan3044"
         x="507.66705"
         y="457.17444">3</tspan></text>
    <path
       sodipodi:type="arc"
       style="opacity:1;color:#000000;fill:none;stroke:#000000;stroke-width:5.20211935000000025;stroke-linecap:round;stroke-linejoin:miter;stroke-miterlimit:4;stroke-opacity:1;stroke-dasharray:none;stroke-dashoffset:0;marker:none;marker-end:url(#Arrow1Mend-4);visibility:visible;display:inline;overflow:visible;enable-background:accumulate"
       id="path3125-4-1-8"
       sodipodi:cx="-597.74573"
       sodipodi:cy="677.24622"
       sodipodi:rx="88.441971"
       sodipodi:ry="88.441971"
       d="m -533.94481,738.4951 a 88.441971,88.441971 0 1 1 -5.71393,-127.94134"
       sodipodi:start="0.76499283"
       sodipodi:end="5.4289307"
       sodipodi:open="true"
       transform="matrix(-0.35777389,-0.20655989,0,0.41313382,44.373865,-117.41277)" />
  </g>
</svg>
